<?xml version="1.0" encoding="UTF-8"?>
<!DOCTYPE svg PUBLIC "-//W3C//DTD SVG 1.1//EN" "http://www.w3.org/Graphics/SVG/1.1/DTD/svg11.dtd">
<svg xmlns="http://www.w3.org/2000/svg" version="1.1" width="1167px" height="267px" style="shape-rendering:geometricPrecision; text-rendering:geometricPrecision; image-rendering:optimizeQuality; fill-rule:evenodd; clip-rule:evenodd" xmlns:xlink="http://www.w3.org/1999/xlink">
<g><path style="opacity:0.91" fill="#fefffe" d="M 261.5,3.5 C 262.978,3.23798 264.311,3.57131 265.5,4.5C 271.132,12.2976 277.299,19.6309 284,26.5C 281.107,61.0108 278.774,95.6774 277,130.5C 282.916,100.671 288.083,70.6707 292.5,40.5C 299.199,42.1814 304.199,46.1814 307.5,52.5C 306.503,55.1617 305.503,57.8284 304.5,60.5C 300.32,87.4798 294.986,114.146 288.5,140.5C 296.971,144.047 305.637,147.547 314.5,151C 316.116,151.615 317.449,152.615 318.5,154C 319.784,154.684 320.951,154.517 322,153.5C 339.025,127.81 355.692,101.81 372,75.5C 373,74.8333 374,74.1667 375,73.5C 379.737,74.6983 384.571,74.6983 389.5,73.5C 389.833,74.1667 390.167,74.8333 390.5,75.5C 388.906,78.937 387.073,82.2703 385,85.5C 366.902,109.297 349.902,133.63 334,158.5C 358.128,130.885 381.628,102.885 404.5,74.5C 415.023,74.3911 425.69,74.3911 436.5,74.5C 436.954,85.6029 436.454,96.6029 435,107.5C 406.038,130.738 377.538,154.571 349.5,179C 350.167,179.667 350.833,179.667 351.5,179C 358.992,173.42 366.659,168.087 374.5,163C 394.783,147.714 415.45,133.214 436.5,119.5C 436.83,126.532 436.497,133.532 435.5,140.5C 409.158,157.002 383.158,174.002 357.5,191.5C 361.548,198.263 365.048,205.263 368,212.5C 369.153,216.787 369.987,221.121 370.5,225.5C 399.937,219.979 429.27,214.146 458.5,208C 460.339,206.868 462.339,206.035 464.5,205.5C 469.727,209.607 474.727,213.94 479.5,218.5C 445.621,224.746 411.621,230.579 377.5,236C 415.883,234.622 454.216,232.622 492.5,230C 498.825,236.291 505.158,242.624 511.5,249C 512.448,249.483 513.448,249.649 514.5,249.5C 514.5,250.5 514.5,251.5 514.5,252.5C 345.833,252.5 177.167,252.5 8.5,252.5C 8.28099,251.325 8.61432,250.325 9.5,249.5C 17.3373,243.161 24.6706,236.328 31.5,229C 36.8333,228.333 42.1667,228.333 47.5,229C 82.3364,232.286 117.17,235.119 152,237.5C 152.75,236.874 153.584,236.374 154.5,236C 117.851,230.278 81.1843,224.445 44.5,218.5C 48.3455,214.155 52.3455,209.988 56.5,206C 60.5274,205.669 64.5274,206.002 68.5,207C 97.6772,213.252 127.011,218.752 156.5,223.5C 158.669,213.155 162.503,203.489 168,194.5C 168.781,193.056 168.614,191.723 167.5,190.5C 140.665,174.248 113.665,158.248 86.5,142.5C 85.7492,141.624 85.2492,140.624 85,139.5C 84.4476,134.227 84.6143,129.227 85.5,124.5C 114.048,141.933 142.048,160.1 169.5,179C 170.167,179.667 170.833,179.667 171.5,179C 148.003,157.816 124.336,137.149 100.5,117C 95.2792,111.779 90.1126,106.613 85,101.5C 84.5921,93.189 84.4255,85.0224 84.5,77C 85.9293,74.5622 87.7626,73.3956 90,73.5C 98.1086,74.1527 106.275,74.8194 114.5,75.5C 137.442,102.612 160.942,129.278 185,155.5C 184.874,152.902 183.874,150.569 182,148.5C 164.911,124.656 147.578,100.989 130,77.5C 129.51,76.2068 129.343,74.8734 129.5,73.5C 134.362,73.5922 139.195,73.5922 144,73.5C 144.925,74.0465 145.758,74.7132 146.5,75.5C 165.379,102.571 184.545,129.571 204,156.5C 211.141,152.013 218.641,148.179 226.5,145C 230.313,143.228 234.313,142.395 238.5,142.5C 232.693,112.635 226.36,82.9682 219.5,53.5C 222.643,49.189 225.977,45.0224 229.5,41C 232.815,40.1202 233.815,41.1202 232.5,44C 233.667,48.5025 234.834,53.0025 236,57.5C 239.807,84.0095 244.141,110.343 249,136.5C 247.651,101.83 245.151,67.3303 241.5,33C 243.157,25.8834 246.99,20.0501 253,15.5C 255.696,11.3197 258.53,7.31972 261.5,3.5 Z M 252.5,196.5 C 253.243,192.453 254.243,188.453 255.5,184.5C 252.006,181.176 248.339,178.009 244.5,175C 249.553,174.783 254.553,174.283 259.5,173.5C 261.126,170.002 262.293,166.335 263,162.5C 264.256,166.597 266.089,170.43 268.5,174C 272.759,175.042 277.093,175.875 281.5,176.5C 278.672,178.748 275.672,180.748 272.5,182.5C 272.167,183.5 271.833,184.5 271.5,185.5C 272.361,189.595 273.194,193.595 274,197.5C 270.372,194.943 266.872,192.277 263.5,189.5C 260.083,192.255 256.417,194.588 252.5,196.5 Z M 201.5,201.5 C 205.223,202.858 208.889,204.525 212.5,206.5C 216.142,204.025 219.642,201.358 223,198.5C 223.033,202.353 222.533,206.186 221.5,210C 223.919,214.409 227.585,217.409 232.5,219C 227.738,219.345 223.071,220.178 218.5,221.5C 217.271,225.812 216.104,230.145 215,234.5C 212.898,230.247 211.064,225.914 209.5,221.5C 205.154,221.666 200.821,221.499 196.5,221C 200.207,218.627 203.207,215.627 205.5,212C 203.278,208.835 201.945,205.335 201.5,201.5 Z M 301.5,198.5 C 305.095,200.913 308.595,203.58 312,206.5C 316.127,204.248 320.294,202.415 324.5,201C 322.35,204.615 320.683,208.449 319.5,212.5C 321.994,215.826 324.994,218.66 328.5,221C 324.129,221.172 319.796,221.672 315.5,222.5C 312.985,226.183 311.152,230.183 310,234.5C 309.119,229.719 307.619,225.219 305.5,221C 301.205,220.088 296.872,219.421 292.5,219C 297.193,217.472 300.859,214.638 303.5,210.5C 302.444,206.556 301.777,202.556 301.5,198.5 Z"/></g>
<g><path style="opacity:0.956" fill="#fefffe" d="M 565.5,16.5 C 579.39,15.5688 589.556,21.2355 596,33.5C 604.099,53.6825 607.599,74.6825 606.5,96.5C 599.167,96.5 591.833,96.5 584.5,96.5C 584.776,87.1209 584.276,77.7876 583,68.5C 581.995,61.6455 578.829,56.1455 573.5,52C 565.03,51.1125 559.863,54.9458 558,63.5C 557.118,66.7895 556.452,70.1228 556,73.5C 555.333,114.5 555.333,155.5 556,196.5C 556.262,203.214 557.928,209.547 561,215.5C 567.981,223.314 574.315,222.647 580,213.5C 581.202,210.226 582.202,206.893 583,203.5C 584.455,192.554 585.288,181.554 585.5,170.5C 592.5,170.5 599.5,170.5 606.5,170.5C 608.08,192.789 605.247,214.456 598,235.5C 588.546,254.763 574.046,259.929 554.5,251C 546.098,243.716 540.598,234.549 538,223.5C 535.306,211.319 533.973,198.985 534,186.5C 533.333,152.167 533.333,117.833 534,83.5C 533.873,69.184 535.873,55.184 540,41.5C 543.828,28.1695 552.328,19.8362 565.5,16.5 Z"/></g>
<g><path style="opacity:0.961" fill="#fefffe" d="M 652.5,16.5 C 669.701,15.5239 681.201,23.1905 687,39.5C 691.563,52.7718 693.896,66.4385 694,80.5C 694.667,117.5 694.667,154.5 694,191.5C 693.92,206.649 691.253,221.316 686,235.5C 676.193,254.983 661.36,260.15 641.5,251C 633.684,244.541 628.518,236.375 626,226.5C 623.911,218.966 622.578,211.3 622,203.5C 621.045,155.477 621.378,107.477 623,59.5C 624.376,48.3161 628.043,37.9827 634,28.5C 639.066,22.5641 645.232,18.5641 652.5,16.5 Z M 654.5,51.5 C 659.74,50.5384 663.907,52.2051 667,56.5C 669.742,61.1332 671.409,66.1332 672,71.5C 672.667,114.5 672.667,157.5 672,200.5C 671.454,207.756 668.621,213.923 663.5,219C 656.426,222.42 650.926,220.587 647,213.5C 644.728,208.41 643.394,203.077 643,197.5C 642.333,156.833 642.333,116.167 643,75.5C 643.148,68.234 645.148,61.5673 649,55.5C 650.812,54.0229 652.645,52.6896 654.5,51.5 Z"/></g>
<g><path style="opacity:0.959" fill="#fefffe" d="M 710.5,20.5 C 720.833,20.5 731.167,20.5 741.5,20.5C 746.514,66.6138 752.348,112.614 759,158.5C 764.998,112.512 770.832,66.5124 776.5,20.5C 786.833,20.5 797.167,20.5 807.5,20.5C 807.5,97.8333 807.5,175.167 807.5,252.5C 800.5,252.5 793.5,252.5 786.5,252.5C 786.667,200.166 786.5,147.832 786,95.5C 779,147.167 772,198.833 765,250.5C 763.13,251.743 760.964,252.41 758.5,252.5C 756.036,252.41 753.87,251.743 752,250.5C 745,198.167 738,145.833 731,93.5C 730.5,146.499 730.333,199.499 730.5,252.5C 723.833,252.5 717.167,252.5 710.5,252.5C 710.5,175.167 710.5,97.8333 710.5,20.5 Z"/></g>
<g><path style="opacity:0.977" fill="#fefffe" d="M 824.5,20.5 C 839.17,20.3334 853.837,20.5001 868.5,21C 878.807,23.9708 885.974,30.4708 890,40.5C 895.629,56.1531 898.129,72.3198 897.5,89C 898.482,107.61 895.315,125.443 888,142.5C 884.381,149.451 878.881,154.284 871.5,157C 862.893,158.339 854.226,158.839 845.5,158.5C 845.5,189.833 845.5,221.167 845.5,252.5C 838.5,252.5 831.5,252.5 824.5,252.5C 824.5,175.167 824.5,97.8333 824.5,20.5 Z M 845.5,54.5 C 850.844,54.334 856.177,54.5006 861.5,55C 869.144,57.7593 873.311,63.2593 874,71.5C 875.969,83.4967 875.969,95.4967 874,107.5C 873.38,116.27 868.88,121.77 860.5,124C 855.511,124.499 850.511,124.666 845.5,124.5C 845.5,101.167 845.5,77.8333 845.5,54.5 Z"/></g>
<g><path style="opacity:0.964" fill="#fefffe" d="M 925.5,20.5 C 935.167,20.5 944.833,20.5 954.5,20.5C 963.354,97.8564 972.354,175.19 981.5,252.5C 974.137,252.831 966.803,252.497 959.5,251.5C 957.282,234.871 955.282,218.205 953.5,201.5C 944.5,201.5 935.5,201.5 926.5,201.5C 924.614,218.478 922.947,235.478 921.5,252.5C 914.5,252.5 907.5,252.5 900.5,252.5C 908.394,175.118 916.728,97.7844 925.5,20.5 Z M 939.5,71.5 C 943.126,103.241 946.792,135.074 950.5,167C 943.476,167.831 936.476,167.664 929.5,166.5C 933.271,134.896 936.604,103.229 939.5,71.5 Z"/></g>
<g><path style="opacity:0.971" fill="#fefffe" d="M 994.5,20.5 C 1001.83,20.5 1009.17,20.5 1016.5,20.5C 1026.84,66.1885 1037.34,111.855 1048,157.5C 1048.5,111.835 1048.67,66.1679 1048.5,20.5C 1055.17,20.5 1061.83,20.5 1068.5,20.5C 1068.5,97.8333 1068.5,175.167 1068.5,252.5C 1062.17,252.5 1055.83,252.5 1049.5,252.5C 1038.19,202.471 1026.69,152.471 1015,102.5C 1014.5,152.499 1014.33,202.499 1014.5,252.5C 1007.83,252.5 1001.17,252.5 994.5,252.5C 994.5,175.167 994.5,97.8333 994.5,20.5 Z"/></g>
<g><path style="opacity:0.964" fill="#fefffe" d="M 1081.5,20.5 C 1089.5,20.5 1097.5,20.5 1105.5,20.5C 1110.91,51.2111 1116.58,81.8777 1122.5,112.5C 1128.65,82.2443 1134.48,51.9109 1140,21.5C 1147.75,20.5183 1155.58,20.185 1163.5,20.5C 1153.4,67.4998 1143.23,114.5 1133,161.5C 1132.5,191.832 1132.33,222.165 1132.5,252.5C 1125.5,252.5 1118.5,252.5 1111.5,252.5C 1111.67,221.498 1111.5,190.498 1111,159.5C 1101.23,113.134 1091.39,66.8009 1081.5,20.5 Z"/></g>
</svg>
